<svg xmlns="http://www.w3.org/2000/svg" viewBox="0 0 24 24" fill="none" stroke="currentColor" stroke-width="1.5" stroke-linecap="round" stroke-linejoin="round">
  <path d="M15.5 9c3.04 0 5.5 2.01 5.5 4.5 0 1.4-.78 2.64-2 3.47V19l-1.96-1.18A6.63 6.63 0 0 1 15.5 18c-3.04 0-5.5-2.01-5.5-4.5S12.46 9 15.5 9z"/>
  <path d="M10.2 14.7c-.69.2-1.43.3-2.2.3A8 8 0 0 1 5.39 14.6L3 16v-2.8C1.76 12.12 1 10.64 1 9c0-3.31 3.13-6 7-6 3.78 0 6.86 2.57 7 5.78"/>
  <path d="M9 7h.01"/>
  <path d="M6 7h.01"/>
  <path d="M14 12h.01"/>
  <path d="M17 12h.01"/>
</svg>
